# xmcd
#
# Track frame offsets:
#	150
#	16445
#	27885
#	41627
#	51602
#	64460
#	75240
#	88490
#	101652
#	118815
#	129312
#	140572
#	154147
#	180427
#	198345
#	208872
#	220985
#	234197
#	246235
#	263245
#
# Disc length: 3707
#
# Revision: 2
# Processed by: cddbd v1.5.1PL0 Copyright (c) Steve Scherf et al.
# Submitted via: EasyCDDAExtractor 4.5.2.1
# Normalized: r0:DSETVAR1,TDELIM( - ),TSWAP
#
DISCID=270e7914
DTITLE=Various Artist - Country Chartbusters volume 2
DYEAR=1996
DGENRE=Country
TTITLE0=exile - Kiss you all over
TTITLE1=Johny Cash - A thing called love
TTITLE2=Barbara Fairchild - The teddy bear song
TTITLE3=Lynn Anderson - What a man my man is
TTITLE4=Marty Robbins - Devil Woman
TTITLE5=Kris Kristofferson - Help me make it through the night
TTITLE6=Tammy Wynette - D I V O R C E
TTITLE7=Charlie Rich - Behind Closed Doors
TTITLE8=Dr Hook - Sylvia's mother
TTITLE9=Statler Brothers - Flowers on the wall
TTITLE10=Johnny Horton - Battle of New Orleans
TTITLE11=Jimmy Dean - Big bad John
TTITLE12=Willie Nelson - Loving her was easier
TTITLE13=Billy Swan - I can help
TTITLE14=Dolly Parton - Too lonely too long
TTITLE15=Meric Haggard - Okie from Muskogee
TTITLE16=Tanya Tucker - Delta Dawn
TTITLE17=Frankie Laine - High Noon
TTITLE18=Ray Price - For the good times
TTITLE19=Michael Murphy - Wildfire
EXTD=
EXTT0=
EXTT1=
EXTT2=
EXTT3=
EXTT4=
EXTT5=
EXTT6=
EXTT7=
EXTT8=
EXTT9=
EXTT10=
EXTT11=
EXTT12=
EXTT13=
EXTT14=
EXTT15=
EXTT16=
EXTT17=
EXTT18=
EXTT19=
PLAYORDER=
